<svg width="17" height="17" viewBox="0 0 17 17" fill="none" xmlns="http://www.w3.org/2000/svg">
<path d="M8.33333 16.6667C7.18056 16.6667 6.09722 16.448 5.08333 16.0105C4.06945 15.573 3.1875 14.9792 2.4375 14.2292C1.6875 13.4792 1.09375 12.5973 0.65625 11.5834C0.21875 10.5695 0 9.48619 0 8.33341C0 7.18064 0.21875 6.0973 0.65625 5.08341C1.09375 4.06952 1.6875 3.18758 2.4375 2.43758C3.1875 1.68758 4.06945 1.09383 5.08333 0.65633C6.09722 0.21883 7.18056 8.01086e-05 8.33333 8.01086e-05C9.48611 8.01086e-05 10.5694 0.21883 11.5833 0.65633C12.5972 1.09383 13.4792 1.68758 14.2292 2.43758C14.9792 3.18758 15.5729 4.06952 16.0104 5.08341C16.4479 6.0973 16.6667 7.18064 16.6667 8.33341C16.6667 9.48619 16.4479 10.5695 16.0104 11.5834C15.5729 12.5973 14.9792 13.4792 14.2292 14.2292C13.4792 14.9792 12.5972 15.573 11.5833 16.0105C10.5694 16.448 9.48611 16.6667 8.33333 16.6667ZM7.5 14.9584V13.3334C7.04167 13.3334 6.64931 13.1702 6.32292 12.8438C5.99653 12.5174 5.83333 12.1251 5.83333 11.6667V10.8334L1.83333 6.83341C1.79167 7.08341 1.75347 7.33341 1.71875 7.58341C1.68403 7.83341 1.66667 8.08341 1.66667 8.33341C1.66667 10.014 2.21875 11.4862 3.32292 12.7501C4.42708 14.014 5.81945 14.7501 7.5 14.9584ZM13.25 12.8334C13.8194 12.2084 14.2535 11.5105 14.5521 10.7397C14.8507 9.96883 15 9.16675 15 8.33341C15 6.9723 14.6215 5.72925 13.8646 4.60425C13.1076 3.47925 12.0972 2.66675 10.8333 2.16675V2.50008C10.8333 2.95841 10.6701 3.35077 10.3438 3.67716C10.0174 4.00355 9.625 4.16675 9.16667 4.16675H7.5V5.83341C7.5 6.06952 7.42014 6.26744 7.26042 6.42716C7.1007 6.58689 6.90278 6.66675 6.66667 6.66675H5V8.33341H10C10.2361 8.33341 10.434 8.41327 10.5938 8.573C10.7535 8.73272 10.8333 8.93064 10.8333 9.16675V11.6667H11.6667C12.0278 11.6667 12.3542 11.7744 12.6458 11.9897C12.9375 12.2049 13.1389 12.4862 13.25 12.8334Z" fill="#3B82F6"/>
</svg>
