<svg width="15" height="15" viewBox="0 0 15 15" fill="none" xmlns="http://www.w3.org/2000/svg">
<path d="M2 12.1602C1.375 11.5352 0.885417 10.8129 0.53125 9.99349C0.177083 9.17405 0 8.32682 0 7.45182C0 6.57682 0.166667 5.71224 0.5 4.85807C0.833333 4.00391 1.375 3.20182 2.125 2.45182C2.61111 1.96571 3.21181 1.54904 3.92708 1.20182C4.64236 0.8546 5.48958 0.580295 6.46875 0.378906C7.44792 0.177517 8.56597 0.0559893 9.82292 0.0143223C11.0799 -0.0273438 12.4861 0.0212669 14.0417 0.160156C14.1528 1.63238 14.1875 2.98654 14.1458 4.22266C14.1042 5.45877 13.9896 6.57335 13.8021 7.56641C13.6146 8.55946 13.3507 9.42752 13.0104 10.1706C12.6701 10.9136 12.25 11.5352 11.75 12.0352C11.0139 12.7713 10.2326 13.3095 9.40625 13.6497C8.57986 13.99 7.73611 14.1602 6.875 14.1602C5.97222 14.1602 5.09028 13.9831 4.22917 13.6289C3.36806 13.2747 2.625 12.7852 2 12.1602ZM4.33333 11.8268C4.73611 12.0629 5.14931 12.2331 5.57292 12.3372C5.99653 12.4414 6.43056 12.4935 6.875 12.4935C7.51389 12.4935 8.14583 12.365 8.77083 12.1081C9.39583 11.8511 9.99306 11.4379 10.5625 10.8685C10.8125 10.6185 11.066 10.2678 11.3229 9.81641C11.5799 9.36502 11.8021 8.77474 11.9896 8.04557C12.1771 7.31641 12.3194 6.43446 12.4167 5.39974C12.5139 4.36502 12.5278 3.13238 12.4583 1.70182C11.7778 1.67404 11.0104 1.66363 10.1562 1.67057C9.30208 1.67752 8.45139 1.74349 7.60417 1.86849C6.75694 1.99349 5.95139 2.19488 5.1875 2.47266C4.42361 2.75043 3.79861 3.13238 3.3125 3.61849C2.6875 4.24349 2.25694 4.86154 2.02083 5.47266C1.78472 6.08377 1.66667 6.67405 1.66667 7.24349C1.66667 8.06293 1.82292 8.78168 2.13542 9.39974C2.44792 10.0178 2.72222 10.4518 2.95833 10.7018C3.54167 9.59071 4.3125 8.52474 5.27083 7.50391C6.22917 6.48307 7.34722 5.64627 8.625 4.99349C7.625 5.86849 6.75347 6.85807 6.01042 7.96224C5.26736 9.06641 4.70833 10.3546 4.33333 11.8268Z" fill="#3B82F6"/>
</svg>
